<svg width="269" height="62" viewBox="0 0 269 62" fill="none" xmlns="http://www.w3.org/2000/svg">
<path d="M39.168 61H23.712L0.288 0.519995H15.456L31.68 43.048H32.064L48.096 0.519995H62.592L39.168 61Z" fill="white"/>
<path d="M109.552 49V61H62.896V0.519995H108.688V12.52H77.2V24.424H101.68V36.232H77.2V49H109.552Z" fill="white"/>
<path d="M169.44 0.519995L147.936 29.128L171.264 61H154.176L139.104 40.456L124.32 61H108.288L131.52 29.992L110.016 0.519995H127.104L140.256 18.76L153.312 0.519995H169.44Z" fill="white"/>
<path d="M169.448 49V61H216.104V0.519995H170.312V12.52H201.8V24.424H177.32V36.232H201.8V49H169.448Z" fill="white"/>
<path d="M220.896 0.519995H235.488V49H266.208V61H220.896V0.519995Z" fill="white"/>
</svg>
